<svg viewBox="0 0 120 150" xmlns="http://www.w3.org/2000/svg"><circle cx="60" cy="60" r="50" fill="#34E0A1" /><g transform="translate(25, 35) scale(0.15)"><path fill="#000000" d="M115.8 245.9c0-18.7 15.1-33.8 33.8-33.8s33.8 15.1 33.8 33.8-15.1 33.8-33.8 33.8-33.8-15.1-33.8-33.8m148.8 0c0-18.7 15.1-33.8 33.8-33.8s33.8 15.1 33.8 33.8-15.1 33.8-33.8 33.8-33.8-15.1-33.8-33.8m37.8-124c-20.9-14-41.3-21.4-61.9-22.1V51.7c0-1.8-1.5-3.3-3.3-3.3h-25.9c-1.8 0-3.3 1.5-3.3 3.3v48c-20.4 .7-41 8.2-61.9 22.1-43.1 28.5-70.1 63.3-80.4 103.5H35.4c-8.9 0-14.7 9.5-10.7 17.5L50.4 295c10.4 20.8 24.3 37.8 41 50.4 28 21.2 61 31.8 100.9 31.8 15-22.4 26.5-44.1 31.8-49.8 5.3 5.7 16.8 27.4 31.8 49.8 39.8 0 72.8-10.6 100.9-31.8 16.7-12.6 30.6-29.6 41-50.4l25.7-52.2c4-8 .9-17.5-8-17.5h-29.9c-10.3-40.2-37.3-75-80.4-103.5M149.6 313.4c-37.3 0-67.6-30.3-67.6-67.6s30.3-67.6 67.6-67.6c37.3 0 67.6 30.3 67.6 67.6s-30.3 67.6-67.6 67.6m148.8 0c-37.3 0-67.6-30.3-67.6-67.6s30.3-67.6 67.6-67.6c37.3 0 67.6 30.3 67.6 67.6s-30.3 67.6-67.6 67.6"/></g><text x="60" y="140" font-family="system-ui, -apple-system, sans-serif" font-weight="800" font-size="18" fill="#ffffff" text-anchor="middle">Tripadvisor</text></svg>
