<svg viewBox="0 0 120 120" xmlns="http://www.w3.org/2000/svg"><path fill="#25D366" d="M60,10A50,50,0,0,0,16.51,84.62L10,110l25.86-6.4A50,50,0,1,0,60,10Z"/><path fill="#ffffff" d="M82.8,72.4c-1.3-3.6-7.8-6.9-10.4-8-2.6-1.1-4.5-1.7-6.4,1.1s-7.4,9.1-9.1,11-5.1,2.1-7.7.8a30.84,30.84,0,0,1-13.6-11.8c-2.3-3.9-1.2-5.4,1-7.6,3.6-3.6,5.3-6.5,7.9-10,.9-1.3,1.3-3,.4-4.8s-6.4-15.4-8.7-21.1c-2.3-5.6-4.5-5.6-6.4-5.6s-3.7-.2-5.7-.2a10.94,10.94,0,0,0-7.9,3.7A29.7,29.7,0,0,0,21,43.2c0,11.2,7.7,22,8.8,23.5,1.1,1.5,15.8,25.2,39.3,34.4,15.8,6.2,21.8,6.2,26,5.2,5.2-1.2,16.2-6.6,18.5-13S94.9,80.1,93.6,78.8Z"/></svg>
